# xmcd
#
# Track frame offsets:
# 150
# 13288
# 28813
# 41801
# 59602
# 69112
# 85116
# 100128
# 120924
# 136018
# 149639
# 163513
# 176409
# 190392
# 203506
#
# Disc length: 2857 seconds
#
#
# Revision: 0
# Processed by: cddbd v1.5.2PL0 Copyright (c) Steve Scherf et al.
# Submitted via: FreeRIP 2.951 
#
DISCID=cb0b270f
DTITLE=bluegrass bridagde - The Last Family Portrait
DYEAR=1900
DGENRE=bluegrass
TTITLE0=The Yellow Rose Of Texas
TTITLE1=Walk The Way the Wind Blows
TTITLE2=My Home's Acrosss the Blue Ridge Mountains
TTITLE3=Fallen Leaves
TTITLE4=Two O'Clock in the Morning
TTITLE5=Who Will Sing for Me
TTITLE6=Little Bessie
TTITLE7=The Last Family Portrait
TTITLE8=Sweetheart, Darlin of Mine
TTITLE9=Indian Summer
TTITLE10=I am waery (Let Me Rest)
TTITLE11=Been All Around The World
TTITLE12=To Daddy
TTITLE13=Put on Your Old Gray Bonnet
TTITLE14=When the Roll is Called up Yonder
EXTD=
EXTT0=
EXTT1=
EXTT2=
EXTT3=
EXTT4=
EXTT5=
EXTT6=
EXTT7=
EXTT8=
EXTT9=
EXTT10=
EXTT11=
EXTT12=
EXTT13=
EXTT14=
PLAYORDER=
